# xmcd
#
# Track frame offsets:
#	150
#	13043
#	33746
#	38847
#	51430
#	65677
#	79990
#	92885
#	103360
#	114553
#	125098
#	134713
#	148342
#
# Disc length: 2131 seconds
# Revision: 0
# Processed by: cddbd v1.5.2PL0 Copyright (c) Steve Scherf et al.
# Submitted via: dBpowerAMP V12.0
#
DISCID=d208510d
DTITLE=Portland City Limits Band - Country Store
DYEAR=1900
DGENRE=Country
TTITLE0=John Hardy
TTITLE1=Richmond
TTITLE2=Martha White
TTITLE3=Your Love Is Like A Flower
TTITLE4=I Couldn't Believe It Was True
TTITLE5=This Is Just What Heaven Means To Me
TTITLE6=On My Mind
TTITLE7=Cracker Barrel Old Country Store
TTITLE8=Is It True
TTITLE9=Ballad Of Jed Clampett
TTITLE10=Rattler
TTITLE11=Mountain Dew
TTITLE12=I'll Fly Away
EXTD=
EXTT0=
EXTT1=
EXTT2=
EXTT3=
EXTT4=
EXTT5=
EXTT6=
EXTT7=
EXTT8=
EXTT9=
EXTT10=
EXTT11=
EXTT12=
PLAYORDER=
